M48
; DRILL file {KiCad 8.0.8+1} date 2026-04-01T13:25:44+0000
; FORMAT={-:-/ absolute / metric / decimal}
; #@! TF.CreationDate,2026-04-01T13:25:44+00:00
; #@! TF.GenerationSoftware,Kicad,Pcbnew,8.0.8+1
; #@! TF.FileFunction,Plated,1,6,PTH
FMAT,2
METRIC
; #@! TA.AperFunction,Plated,PTH,ComponentDrill
T1C0.900
%
G90
G05
T1
X145.14Y-67.64
X145.14Y-70.18
X145.14Y-72.72
X145.14Y-75.26
X145.14Y-77.8
X145.14Y-80.34
X145.14Y-82.88
X145.14Y-85.42
X145.14Y-87.96
X145.14Y-90.5
X145.14Y-93.04
X145.14Y-95.58
X145.14Y-98.12
X145.14Y-100.66
X145.14Y-103.2
X168.0Y-67.64
X168.0Y-70.18
X168.0Y-72.72
X168.0Y-75.26
X168.0Y-77.8
X168.0Y-80.34
X168.0Y-82.88
X168.0Y-85.42
X168.0Y-87.96
X168.0Y-90.5
X168.0Y-93.04
X168.0Y-95.58
X168.0Y-98.12
X168.0Y-100.66
X168.0Y-103.2
M30
