%TF.GenerationSoftware,KiCad,Pcbnew,8.0.8+1*%
%TF.CreationDate,Date%
%TF.ProjectId,KiBot,4b69426f-742e-46b6-9963-61645f706362,1.0.0*%
%TF.SameCoordinates,Original*%
%TF.FileFunction,Legend,Top*%
%TF.FilePolarity,Positive*%
%FSLAX46Y46*%
G04 Gerber Fmt 4.6, Leading zero omitted, Abs format (unit mm)*
G04 Created by KiCad*
%MOMM*%
%LPD*%
G01*
G04 APERTURE LIST*
G04 Aperture macros list*
%AMRoundRect*
0 Rectangle with rounded corners*
0 $1 Rounding radius*
0 $2 $3 $4 $5 $6 $7 $8 $9 X,Y pos of 4 corners*
0 Add a 4 corners polygon primitive as box body*
4,1,4,$2,$3,$4,$5,$6,$7,$8,$9,$2,$3,0*
0 Add four circle primitives for the rounded corners*
1,1,$1+$1,$2,$3*
1,1,$1+$1,$4,$5*
1,1,$1+$1,$6,$7*
1,1,$1+$1,$8,$9*
0 Add four rect primitives between the rounded corners*
20,1,$1+$1,$2,$3,$4,$5,0*
20,1,$1+$1,$4,$5,$6,$7,0*
20,1,$1+$1,$6,$7,$8,$9,0*
20,1,$1+$1,$8,$9,$2,$3,0*%
G04 Aperture macros list end*
%ADD10C,0.150000*%
%ADD11C,0.000000*%
%ADD12C,0.120000*%
%ADD13RoundRect,0.271277X-0.503723X0.366223X-0.503723X-0.366223X0.503723X-0.366223X0.503723X0.366223X0*%
%ADD14RoundRect,0.050000X-0.750000X-0.750000X0.750000X-0.750000X0.750000X0.750000X-0.750000X0.750000X0*%
%ADD15C,1.600000*%
G04 APERTURE END LIST*
D10*
X139759580Y-75356547D02*
X139807200Y-75404166D01*
X139807200Y-75404166D02*
X139854819Y-75547023D01*
X139854819Y-75547023D02*
X139854819Y-75642261D01*
X139854819Y-75642261D02*
X139807200Y-75785118D01*
X139807200Y-75785118D02*
X139711961Y-75880356D01*
X139711961Y-75880356D02*
X139616723Y-75927975D01*
X139616723Y-75927975D02*
X139426247Y-75975594D01*
X139426247Y-75975594D02*
X139283390Y-75975594D01*
X139283390Y-75975594D02*
X139092914Y-75927975D01*
X139092914Y-75927975D02*
X138997676Y-75880356D01*
X138997676Y-75880356D02*
X138902438Y-75785118D01*
X138902438Y-75785118D02*
X138854819Y-75642261D01*
X138854819Y-75642261D02*
X138854819Y-75547023D01*
X138854819Y-75547023D02*
X138902438Y-75404166D01*
X138902438Y-75404166D02*
X138950057Y-75356547D01*
X139188152Y-74499404D02*
X139854819Y-74499404D01*
X138807200Y-74737499D02*
X139521485Y-74975594D01*
X139521485Y-74975594D02*
X139521485Y-74356547D01*
X138854819Y-73785118D02*
X138854819Y-73689880D01*
X138854819Y-73689880D02*
X138902438Y-73594642D01*
X138902438Y-73594642D02*
X138950057Y-73547023D01*
X138950057Y-73547023D02*
X139045295Y-73499404D01*
X139045295Y-73499404D02*
X139235771Y-73451785D01*
X139235771Y-73451785D02*
X139473866Y-73451785D01*
X139473866Y-73451785D02*
X139664342Y-73499404D01*
X139664342Y-73499404D02*
X139759580Y-73547023D01*
X139759580Y-73547023D02*
X139807200Y-73594642D01*
X139807200Y-73594642D02*
X139854819Y-73689880D01*
X139854819Y-73689880D02*
X139854819Y-73785118D01*
X139854819Y-73785118D02*
X139807200Y-73880356D01*
X139807200Y-73880356D02*
X139759580Y-73927975D01*
X139759580Y-73927975D02*
X139664342Y-73975594D01*
X139664342Y-73975594D02*
X139473866Y-74023213D01*
X139473866Y-74023213D02*
X139235771Y-74023213D01*
X139235771Y-74023213D02*
X139045295Y-73975594D01*
X139045295Y-73975594D02*
X138950057Y-73927975D01*
X138950057Y-73927975D02*
X138902438Y-73880356D01*
X138902438Y-73880356D02*
X138854819Y-73785118D01*
X139854819Y-72499404D02*
X139854819Y-73070832D01*
X139854819Y-72785118D02*
X138854819Y-72785118D01*
X138854819Y-72785118D02*
X138997676Y-72880356D01*
X138997676Y-72880356D02*
X139092914Y-72975594D01*
X139092914Y-72975594D02*
X139140533Y-73070832D01*
X154855714Y-105194819D02*
X154855714Y-106004342D01*
X154855714Y-106004342D02*
X154903333Y-106099580D01*
X154903333Y-106099580D02*
X154950952Y-106147200D01*
X154950952Y-106147200D02*
X155046190Y-106194819D01*
X155046190Y-106194819D02*
X155236666Y-106194819D01*
X155236666Y-106194819D02*
X155331904Y-106147200D01*
X155331904Y-106147200D02*
X155379523Y-106099580D01*
X155379523Y-106099580D02*
X155427142Y-106004342D01*
X155427142Y-106004342D02*
X155427142Y-105194819D01*
X156331904Y-105528152D02*
X156331904Y-106194819D01*
X156093809Y-105147200D02*
X155855714Y-105861485D01*
X155855714Y-105861485D02*
X156474761Y-105861485D01*
X157046190Y-105194819D02*
X157141428Y-105194819D01*
X157141428Y-105194819D02*
X157236666Y-105242438D01*
X157236666Y-105242438D02*
X157284285Y-105290057D01*
X157284285Y-105290057D02*
X157331904Y-105385295D01*
X157331904Y-105385295D02*
X157379523Y-105575771D01*
X157379523Y-105575771D02*
X157379523Y-105813866D01*
X157379523Y-105813866D02*
X157331904Y-106004342D01*
X157331904Y-106004342D02*
X157284285Y-106099580D01*
X157284285Y-106099580D02*
X157236666Y-106147200D01*
X157236666Y-106147200D02*
X157141428Y-106194819D01*
X157141428Y-106194819D02*
X157046190Y-106194819D01*
X157046190Y-106194819D02*
X156950952Y-106147200D01*
X156950952Y-106147200D02*
X156903333Y-106099580D01*
X156903333Y-106099580D02*
X156855714Y-106004342D01*
X156855714Y-106004342D02*
X156808095Y-105813866D01*
X156808095Y-105813866D02*
X156808095Y-105575771D01*
X156808095Y-105575771D02*
X156855714Y-105385295D01*
X156855714Y-105385295D02*
X156903333Y-105290057D01*
X156903333Y-105290057D02*
X156950952Y-105242438D01*
X156950952Y-105242438D02*
X157046190Y-105194819D01*
X158331904Y-106194819D02*
X157760476Y-106194819D01*
X158046190Y-106194819D02*
X158046190Y-105194819D01*
X158046190Y-105194819D02*
X157950952Y-105337676D01*
X157950952Y-105337676D02*
X157855714Y-105432914D01*
X157855714Y-105432914D02*
X157760476Y-105480533D01*
D11*
%TO.C,G\u002A\u002A\u002A*%
G36*
X155114000Y-84465667D02*
G01*
X155071666Y-84508000D01*
X155029333Y-84465667D01*
X155071666Y-84423334D01*
X155114000Y-84465667D01*
G37*
G36*
X155876000Y-85143000D02*
G01*
X155833666Y-85185334D01*
X155791333Y-85143000D01*
X155833666Y-85100667D01*
X155876000Y-85143000D01*
G37*
G36*
X155876000Y-85989667D02*
G01*
X155833666Y-86032000D01*
X155791333Y-85989667D01*
X155833666Y-85947334D01*
X155876000Y-85989667D01*
G37*
G36*
X156045333Y-85735667D02*
G01*
X156003000Y-85778000D01*
X155960666Y-85735667D01*
X156003000Y-85693334D01*
X156045333Y-85735667D01*
G37*
G36*
X156214666Y-85735667D02*
G01*
X156172333Y-85778000D01*
X156130000Y-85735667D01*
X156172333Y-85693334D01*
X156214666Y-85735667D01*
G37*
G36*
X156299333Y-83195667D02*
G01*
X156257000Y-83238000D01*
X156214666Y-83195667D01*
X156257000Y-83153334D01*
X156299333Y-83195667D01*
G37*
G36*
X156384000Y-85820334D02*
G01*
X156341666Y-85862667D01*
X156299333Y-85820334D01*
X156341666Y-85778000D01*
X156384000Y-85820334D01*
G37*
G36*
X156807333Y-83280334D02*
G01*
X156765000Y-83322667D01*
X156722666Y-83280334D01*
X156765000Y-83238000D01*
X156807333Y-83280334D01*
G37*
G36*
X156807333Y-85989667D02*
G01*
X156765000Y-86032000D01*
X156722666Y-85989667D01*
X156765000Y-85947334D01*
X156807333Y-85989667D01*
G37*
G36*
X156892000Y-86582334D02*
G01*
X156849666Y-86624667D01*
X156807333Y-86582334D01*
X156849666Y-86540000D01*
X156892000Y-86582334D01*
G37*
G36*
X157061333Y-86497667D02*
G01*
X157019000Y-86540000D01*
X156976666Y-86497667D01*
X157019000Y-86455334D01*
X157061333Y-86497667D01*
G37*
G36*
X157315333Y-86751667D02*
G01*
X157273000Y-86794000D01*
X157230666Y-86751667D01*
X157273000Y-86709334D01*
X157315333Y-86751667D01*
G37*
G36*
X157315333Y-87513667D02*
G01*
X157273000Y-87556000D01*
X157230666Y-87513667D01*
X157273000Y-87471334D01*
X157315333Y-87513667D01*
G37*
G36*
X157400000Y-86413000D02*
G01*
X157357666Y-86455334D01*
X157315333Y-86413000D01*
X157357666Y-86370667D01*
X157400000Y-86413000D01*
G37*
G36*
X157569333Y-83365000D02*
G01*
X157527000Y-83407334D01*
X157484666Y-83365000D01*
X157527000Y-83322667D01*
X157569333Y-83365000D01*
G37*
G36*
X159093333Y-82941667D02*
G01*
X159051000Y-82984000D01*
X159008666Y-82941667D01*
X159051000Y-82899334D01*
X159093333Y-82941667D01*
G37*
G36*
X159347333Y-82941667D02*
G01*
X159305000Y-82984000D01*
X159262666Y-82941667D01*
X159305000Y-82899334D01*
X159347333Y-82941667D01*
G37*
G36*
X155932073Y-84148167D02*
G01*
X155943255Y-84321509D01*
X155932073Y-84359834D01*
X155901170Y-84370470D01*
X155889368Y-84254000D01*
X155902673Y-84133805D01*
X155932073Y-84148167D01*
G37*
G36*
X156863777Y-86229556D02*
G01*
X156852155Y-86279890D01*
X156807333Y-86286000D01*
X156737643Y-86255022D01*
X156750888Y-86229556D01*
X156851368Y-86219423D01*
X156863777Y-86229556D01*
G37*
G36*
X158303111Y-83181556D02*
G01*
X158313244Y-83282035D01*
X158303111Y-83294445D01*
X158252776Y-83282822D01*
X158246666Y-83238000D01*
X158277644Y-83168310D01*
X158303111Y-83181556D01*
G37*
G36*
X155778251Y-83864915D02*
G01*
X155869145Y-83950166D01*
X155850499Y-83999176D01*
X155838663Y-84000000D01*
X155767050Y-83939863D01*
X155740915Y-83902252D01*
X155730935Y-83844315D01*
X155778251Y-83864915D01*
G37*
G36*
X156201584Y-84626915D02*
G01*
X156292478Y-84712166D01*
X156273832Y-84761176D01*
X156261996Y-84762000D01*
X156190384Y-84701863D01*
X156164248Y-84664252D01*
X156154269Y-84606315D01*
X156201584Y-84626915D01*
G37*
G36*
X158202872Y-80146317D02*
G01*
X158114682Y-80229641D01*
X157954503Y-80326670D01*
X157865666Y-80353948D01*
X157857158Y-80312964D01*
X157945348Y-80229641D01*
X158105527Y-80132612D01*
X158194364Y-80105334D01*
X158202872Y-80146317D01*
G37*
G36*
X158500666Y-84341324D02*
G01*
X158432049Y-84414095D01*
X158373666Y-84423334D01*
X158260703Y-84405219D01*
X158246666Y-84390059D01*
X158312872Y-84335465D01*
X158373666Y-84308049D01*
X158482688Y-84306289D01*
X158500666Y-84341324D01*
G37*
G36*
X159093333Y-83957667D02*
G01*
X159159471Y-84074669D01*
X159178000Y-84211667D01*
X159146040Y-84388959D01*
X159093333Y-84465667D01*
X159035975Y-84429604D01*
X159009390Y-84256301D01*
X159008666Y-84211667D01*
X159028432Y-84016359D01*
X159080873Y-83952586D01*
X159093333Y-83957667D01*
G37*
G36*
X158513605Y-85275307D02*
G01*
X158646803Y-85304819D01*
X158669761Y-85333500D01*
X158594365Y-85376601D01*
X158406279Y-85407123D01*
X158329803Y-85412171D01*
X158127168Y-85404855D01*
X158036397Y-85367162D01*
X158038705Y-85348671D01*
X158140024Y-85298905D01*
X158321502Y-85273893D01*
X158513605Y-85275307D01*
G37*
G36*
X158743205Y-84859050D02*
G01*
X158721880Y-84926693D01*
X158590899Y-85013021D01*
X158409977Y-85074520D01*
X158207081Y-85098607D01*
X158046911Y-85082876D01*
X157992666Y-85035250D01*
X158067123Y-84979244D01*
X158255841Y-84911994D01*
X158373666Y-84881437D01*
X158622759Y-84841315D01*
X158743205Y-84859050D01*
G37*
G36*
X158373833Y-80499212D02*
G01*
X158225225Y-80557927D01*
X158035000Y-80621491D01*
X157646544Y-80744532D01*
X157413076Y-80810054D01*
X157330514Y-80818590D01*
X157394773Y-80770673D01*
X157569333Y-80682327D01*
X157863410Y-80566334D01*
X158153926Y-80490228D01*
X158246666Y-80477853D01*
X158377449Y-80474916D01*
X158373833Y-80499212D01*
G37*
G36*
X158802220Y-84495527D02*
G01*
X158929640Y-84557130D01*
X158991301Y-84692126D01*
X158936264Y-84748213D01*
X158813960Y-84691410D01*
X158669264Y-84652771D01*
X158421890Y-84653485D01*
X158131822Y-84685840D01*
X157859044Y-84742122D01*
X157663540Y-84814618D01*
X157622143Y-84844657D01*
X157489818Y-84925984D01*
X157407401Y-84889711D01*
X157400000Y-84847803D01*
X157477045Y-84741234D01*
X157677706Y-84642225D01*
X157956269Y-84559463D01*
X158267018Y-84501635D01*
X158564240Y-84477427D01*
X158802220Y-84495527D01*
G37*
G36*
X158029795Y-83404527D02*
G01*
X158015981Y-83421574D01*
X157956536Y-83571324D01*
X158002217Y-83685668D01*
X158115501Y-83712343D01*
X158194171Y-83669767D01*
X158343929Y-83607204D01*
X158421330Y-83622295D01*
X158467160Y-83696662D01*
X158404580Y-83753058D01*
X158334618Y-83836407D01*
X158395541Y-83928741D01*
X158492179Y-84071799D01*
X158463176Y-84158560D01*
X158408073Y-84169334D01*
X158315127Y-84098498D01*
X158269946Y-83995212D01*
X158191841Y-83873433D01*
X158116494Y-83862502D01*
X157982585Y-83836749D01*
X157851589Y-83709250D01*
X157778352Y-83539432D01*
X157775631Y-83493160D01*
X157851680Y-83376123D01*
X157947638Y-83335228D01*
X158059730Y-83330616D01*
X158029795Y-83404527D01*
G37*
G36*
X157569333Y-83979266D02*
G01*
X157510979Y-84099023D01*
X157443265Y-84168560D01*
X157363010Y-84293546D01*
X157371680Y-84361342D01*
X157372514Y-84408291D01*
X157319536Y-84383598D01*
X157257911Y-84383029D01*
X157234304Y-84499880D01*
X157242954Y-84751569D01*
X157259879Y-84994799D01*
X157270776Y-85149136D01*
X157273000Y-85178702D01*
X157209303Y-85146823D01*
X157167166Y-85129260D01*
X157101767Y-85024646D01*
X157067543Y-84820748D01*
X157065734Y-84584951D01*
X157097581Y-84384638D01*
X157151772Y-84292766D01*
X157206554Y-84177352D01*
X157195075Y-84114039D01*
X157194057Y-84033918D01*
X157235345Y-84045225D01*
X157365096Y-84043728D01*
X157446042Y-83996922D01*
X157546823Y-83947835D01*
X157569333Y-83979266D01*
G37*
G36*
X158462610Y-82549510D02*
G01*
X158563283Y-82735114D01*
X158659295Y-82943112D01*
X158777510Y-83189804D01*
X158880034Y-83358158D01*
X158934462Y-83407334D01*
X158991304Y-83479520D01*
X159008666Y-83608417D01*
X158971013Y-83762256D01*
X158826857Y-83808976D01*
X158797000Y-83809500D01*
X158637760Y-83789899D01*
X158585333Y-83752350D01*
X158637671Y-83649363D01*
X158664195Y-83619000D01*
X158839333Y-83619000D01*
X158881666Y-83661334D01*
X158924000Y-83619000D01*
X158881666Y-83576667D01*
X158839333Y-83619000D01*
X158664195Y-83619000D01*
X158682585Y-83597948D01*
X158730468Y-83481853D01*
X158656083Y-83311945D01*
X158648552Y-83300327D01*
X158552475Y-83116508D01*
X158465386Y-82890785D01*
X158402853Y-82675041D01*
X158380442Y-82521156D01*
X158401658Y-82477445D01*
X158462610Y-82549510D01*
G37*
G36*
X157264431Y-77530745D02*
G01*
X157404812Y-77565270D01*
X157667250Y-77685449D01*
X157917013Y-77870770D01*
X157946935Y-77900454D01*
X158109451Y-78048894D01*
X158225744Y-78117233D01*
X158246401Y-78115831D01*
X158388856Y-78107445D01*
X158616592Y-78167114D01*
X158871394Y-78272988D01*
X159095046Y-78403221D01*
X159167342Y-78461454D01*
X159328695Y-78597616D01*
X159436495Y-78664571D01*
X159444748Y-78666000D01*
X159511280Y-78735352D01*
X159617288Y-78911988D01*
X159681344Y-79037383D01*
X159840471Y-79560213D01*
X159849717Y-80161328D01*
X159772232Y-80606808D01*
X159721344Y-80860664D01*
X159705894Y-81093128D01*
X159727941Y-81359913D01*
X159789542Y-81716733D01*
X159818615Y-81862326D01*
X159815820Y-82176575D01*
X159737966Y-82346181D01*
X159642174Y-82606773D01*
X159599854Y-83000808D01*
X159598317Y-83086855D01*
X159575705Y-83477588D01*
X159521184Y-83893852D01*
X159478940Y-84105893D01*
X159418543Y-84392779D01*
X159409414Y-84558347D01*
X159450939Y-84642465D01*
X159470485Y-84656226D01*
X159579476Y-84770375D01*
X159703940Y-84966085D01*
X159719036Y-84994834D01*
X159865485Y-85194387D01*
X160021075Y-85270000D01*
X160178595Y-85334478D01*
X160340915Y-85490875D01*
X160349717Y-85502834D01*
X160536453Y-85694719D01*
X160786223Y-85874099D01*
X160841707Y-85905000D01*
X161195050Y-86119319D01*
X161537230Y-86378525D01*
X161828643Y-86647809D01*
X162029687Y-86892367D01*
X162085280Y-86997970D01*
X162087220Y-87179892D01*
X162015056Y-87462225D01*
X161884920Y-87802096D01*
X161712945Y-88156629D01*
X161540654Y-88445426D01*
X161398902Y-88679685D01*
X161302447Y-88878174D01*
X161283702Y-88936732D01*
X161236103Y-89051779D01*
X161203952Y-89063306D01*
X161115070Y-89095940D01*
X161007404Y-89185834D01*
X160837583Y-89268044D01*
X160514230Y-89326195D01*
X160033463Y-89360613D01*
X159391401Y-89371626D01*
X158868151Y-89366057D01*
X158595401Y-89373013D01*
X158439258Y-89418212D01*
X158348397Y-89518156D01*
X158338538Y-89536348D01*
X158275294Y-89650447D01*
X158272618Y-89614810D01*
X158299902Y-89503334D01*
X158355826Y-89323626D01*
X158454174Y-89042096D01*
X158575360Y-88714490D01*
X158596681Y-88658598D01*
X158738131Y-88275667D01*
X160956000Y-88275667D01*
X160998333Y-88318000D01*
X161040666Y-88275667D01*
X160998333Y-88233334D01*
X160956000Y-88275667D01*
X158738131Y-88275667D01*
X158741177Y-88267421D01*
X158816034Y-88028409D01*
X158821411Y-87939448D01*
X158757467Y-87998423D01*
X158631774Y-88191000D01*
X158469298Y-88413254D01*
X158252851Y-88649707D01*
X158009782Y-88878308D01*
X157767439Y-89077009D01*
X157553170Y-89223759D01*
X157394323Y-89296509D01*
X157318248Y-89273210D01*
X157315333Y-89252382D01*
X157385266Y-89168966D01*
X157488058Y-89121257D01*
X157628661Y-89028496D01*
X157823501Y-88841199D01*
X158006780Y-88628718D01*
X158192637Y-88405501D01*
X158235392Y-88360334D01*
X158331333Y-88360334D01*
X158373666Y-88402667D01*
X158416000Y-88360334D01*
X158373666Y-88318000D01*
X158331333Y-88360334D01*
X158235392Y-88360334D01*
X158341918Y-88247800D01*
X158419666Y-88191000D01*
X158533118Y-88136823D01*
X158557111Y-88113926D01*
X158569119Y-88075855D01*
X158521833Y-88097756D01*
X158451015Y-88129291D01*
X158429426Y-88103000D01*
X158464911Y-87997780D01*
X158494644Y-87937000D01*
X158585333Y-87937000D01*
X158627666Y-87979334D01*
X158670000Y-87937000D01*
X158627666Y-87894667D01*
X158585333Y-87937000D01*
X158494644Y-87937000D01*
X158536061Y-87852334D01*
X159178000Y-87852334D01*
X159220333Y-87894667D01*
X159262666Y-87852334D01*
X159220333Y-87810000D01*
X159178000Y-87852334D01*
X158536061Y-87852334D01*
X158565317Y-87792529D01*
X158600969Y-87725334D01*
X158839333Y-87725334D01*
X158870311Y-87795024D01*
X158895777Y-87781778D01*
X158905910Y-87681298D01*
X158895777Y-87668889D01*
X158845443Y-87680511D01*
X158839333Y-87725334D01*
X158600969Y-87725334D01*
X158690815Y-87556000D01*
X159178000Y-87556000D01*
X159208978Y-87625690D01*
X159234444Y-87612445D01*
X159244577Y-87511965D01*
X159234444Y-87499556D01*
X159184110Y-87511178D01*
X159178000Y-87556000D01*
X158690815Y-87556000D01*
X158738492Y-87466142D01*
X158797000Y-87357737D01*
X158978436Y-87011973D01*
X159090874Y-86755450D01*
X159150591Y-86531114D01*
X159161621Y-86413000D01*
X160448000Y-86413000D01*
X160490333Y-86455334D01*
X160532666Y-86413000D01*
X160490333Y-86370667D01*
X160448000Y-86413000D01*
X159161621Y-86413000D01*
X159173862Y-86281912D01*
X159175446Y-86159000D01*
X160702000Y-86159000D01*
X160744333Y-86201334D01*
X160786666Y-86159000D01*
X160744333Y-86116667D01*
X160702000Y-86159000D01*
X159175446Y-86159000D01*
X159177172Y-86025041D01*
X159177014Y-85905000D01*
X160278666Y-85905000D01*
X160321000Y-85947334D01*
X160363333Y-85905000D01*
X160321000Y-85862667D01*
X160278666Y-85905000D01*
X159177014Y-85905000D01*
X159176791Y-85735667D01*
X160278666Y-85735667D01*
X160321000Y-85778000D01*
X160363333Y-85735667D01*
X160321000Y-85693334D01*
X160278666Y-85735667D01*
X159176791Y-85735667D01*
X159176345Y-85397000D01*
X158978424Y-85822024D01*
X158749899Y-86179669D01*
X158470768Y-86394829D01*
X158203742Y-86455334D01*
X158087457Y-86513503D01*
X157902002Y-86665307D01*
X157707266Y-86857500D01*
X157444296Y-87120540D01*
X157164497Y-87373797D01*
X156996999Y-87509716D01*
X156663585Y-87759764D01*
X156995269Y-88374685D01*
X157161265Y-88697457D01*
X157247335Y-88911966D01*
X157264236Y-89052950D01*
X157232433Y-89140636D01*
X157169648Y-89229061D01*
X157171678Y-89173098D01*
X157193361Y-89090564D01*
X157214323Y-88952593D01*
X157155432Y-88947701D01*
X157140682Y-88956287D01*
X157067522Y-88970998D01*
X157082943Y-88891806D01*
X157084002Y-88797128D01*
X156976975Y-88801387D01*
X156873453Y-88863962D01*
X156852028Y-89007681D01*
X156867388Y-89130471D01*
X156914155Y-89418667D01*
X156225744Y-89418667D01*
X155908386Y-89409696D01*
X155668379Y-89385830D01*
X155545455Y-89351638D01*
X155537333Y-89339512D01*
X155565189Y-89207850D01*
X155622605Y-89036074D01*
X155670548Y-88834291D01*
X155649841Y-88719035D01*
X155582924Y-88717288D01*
X155492235Y-88856035D01*
X155485691Y-88871427D01*
X155427905Y-89000569D01*
X155381676Y-89042829D01*
X155331003Y-88979250D01*
X155259882Y-88790876D01*
X155161445Y-88487334D01*
X155039691Y-88106334D01*
X155040707Y-88741334D01*
X155040491Y-89141071D01*
X155036677Y-89397151D01*
X155026815Y-89535242D01*
X155008458Y-89581016D01*
X154979155Y-89560144D01*
X154964536Y-89539925D01*
X154839482Y-89492873D01*
X154567009Y-89484595D01*
X154330833Y-89499514D01*
X153995450Y-89516602D01*
X153801835Y-89498187D01*
X153758036Y-89462923D01*
X153724030Y-89439028D01*
X153692767Y-89476945D01*
X153608237Y-89501584D01*
X153420543Y-89451638D01*
X153113741Y-89321841D01*
X152868564Y-89204771D01*
X152535609Y-89046163D01*
X152253696Y-88920465D01*
X152060922Y-88844207D01*
X152002500Y-88828994D01*
X151904042Y-88772516D01*
X151896666Y-88741334D01*
X151828452Y-88665394D01*
X151774663Y-88656667D01*
X151651177Y-88614334D01*
X154267333Y-88614334D01*
X154309666Y-88656667D01*
X154352000Y-88614334D01*
X154309666Y-88572000D01*
X154267333Y-88614334D01*
X151651177Y-88614334D01*
X151624792Y-88605289D01*
X151596351Y-88463692D01*
X151603797Y-88445000D01*
X153928666Y-88445000D01*
X153971000Y-88487334D01*
X154013333Y-88445000D01*
X153971000Y-88402667D01*
X153928666Y-88445000D01*
X151603797Y-88445000D01*
X151681201Y-88250685D01*
X151871208Y-87985075D01*
X152079626Y-87767667D01*
X152489333Y-87767667D01*
X152531666Y-87810000D01*
X152574000Y-87767667D01*
X152531666Y-87725334D01*
X152489333Y-87767667D01*
X152079626Y-87767667D01*
X152125493Y-87719821D01*
X152340758Y-87719821D01*
X152352339Y-87725334D01*
X152429605Y-87665730D01*
X152447000Y-87640667D01*
X152468574Y-87561513D01*
X152456993Y-87556000D01*
X152379728Y-87615604D01*
X152362333Y-87640667D01*
X152340758Y-87719821D01*
X152125493Y-87719821D01*
X152158233Y-87685669D01*
X152218600Y-87630510D01*
X152586485Y-87351554D01*
X152598391Y-87344334D01*
X154436666Y-87344334D01*
X154479000Y-87386667D01*
X154521333Y-87344334D01*
X154519997Y-87342998D01*
X155219951Y-87342998D01*
X155222786Y-87744225D01*
X155245485Y-88130103D01*
X155286631Y-88444190D01*
X155326559Y-88593391D01*
X155375197Y-88642669D01*
X155455256Y-88587028D01*
X155583897Y-88409291D01*
X155705121Y-88214490D01*
X156023953Y-87687198D01*
X155807263Y-87177099D01*
X155677608Y-86885305D01*
X155558013Y-86638689D01*
X155485308Y-86508591D01*
X155416831Y-86428324D01*
X155365195Y-86457452D01*
X155307609Y-86619419D01*
X155279538Y-86720258D01*
X155238396Y-86982861D01*
X155219951Y-87342998D01*
X154519997Y-87342998D01*
X154479000Y-87302000D01*
X154436666Y-87344334D01*
X152598391Y-87344334D01*
X152738007Y-87259667D01*
X152912666Y-87259667D01*
X152955000Y-87302000D01*
X152997333Y-87259667D01*
X152955000Y-87217334D01*
X152912666Y-87259667D01*
X152738007Y-87259667D01*
X152877624Y-87175000D01*
X153082000Y-87175000D01*
X153124333Y-87217334D01*
X153166666Y-87175000D01*
X153124333Y-87132667D01*
X153082000Y-87175000D01*
X152877624Y-87175000D01*
X153017239Y-87090334D01*
X153251333Y-87090334D01*
X153293666Y-87132667D01*
X153309158Y-87117175D01*
X154573241Y-87117175D01*
X154598317Y-87180200D01*
X154652057Y-87189111D01*
X154762641Y-87176120D01*
X154775333Y-87165886D01*
X154712270Y-87099802D01*
X154603837Y-87093751D01*
X154573241Y-87117175D01*
X153309158Y-87117175D01*
X153336000Y-87090334D01*
X153293666Y-87048000D01*
X153251333Y-87090334D01*
X153017239Y-87090334D01*
X153080432Y-87052012D01*
X153170370Y-87005667D01*
X153420666Y-87005667D01*
X153463000Y-87048000D01*
X153505333Y-87005667D01*
X153463000Y-86963334D01*
X153420666Y-87005667D01*
X153170370Y-87005667D01*
X153334677Y-86921000D01*
X154690666Y-86921000D01*
X154733000Y-86963334D01*
X154775333Y-86921000D01*
X154944666Y-86921000D01*
X154987000Y-86963334D01*
X155029333Y-86921000D01*
X154987000Y-86878667D01*
X154944666Y-86921000D01*
X154775333Y-86921000D01*
X154733000Y-86878667D01*
X154690666Y-86921000D01*
X153334677Y-86921000D01*
X153498983Y-86836334D01*
X153759333Y-86836334D01*
X153801666Y-86878667D01*
X153844000Y-86836334D01*
X154182666Y-86836334D01*
X154225000Y-86878667D01*
X154267333Y-86836334D01*
X154225000Y-86794000D01*
X154182666Y-86836334D01*
X153844000Y-86836334D01*
X153801666Y-86794000D01*
X153759333Y-86836334D01*
X153498983Y-86836334D01*
X153662192Y-86752233D01*
X153663470Y-86751667D01*
X153928666Y-86751667D01*
X153971000Y-86794000D01*
X154013333Y-86751667D01*
X153971000Y-86709334D01*
X153928666Y-86751667D01*
X153663470Y-86751667D01*
X153886448Y-86652889D01*
X154126222Y-86652889D01*
X154137844Y-86703223D01*
X154182666Y-86709334D01*
X154252356Y-86678355D01*
X154239111Y-86652889D01*
X154138631Y-86642756D01*
X154126222Y-86652889D01*
X153886448Y-86652889D01*
X154077573Y-86568222D01*
X154380222Y-86568222D01*
X154391844Y-86618557D01*
X154436666Y-86624667D01*
X154506356Y-86593689D01*
X154493111Y-86568222D01*
X154392631Y-86558089D01*
X154380222Y-86568222D01*
X154077573Y-86568222D01*
X154236842Y-86497667D01*
X154606000Y-86497667D01*
X154648333Y-86540000D01*
X154690666Y-86497667D01*
X154648333Y-86455334D01*
X154606000Y-86497667D01*
X154236842Y-86497667D01*
X154293515Y-86472561D01*
X154447133Y-86413000D01*
X154860000Y-86413000D01*
X154902333Y-86455334D01*
X154944666Y-86413000D01*
X154902333Y-86370667D01*
X154860000Y-86413000D01*
X154447133Y-86413000D01*
X154669500Y-86326784D01*
X155283333Y-86101863D01*
X155283333Y-85093265D01*
X155281182Y-84664543D01*
X155271920Y-84377317D01*
X155251337Y-84203774D01*
X155215221Y-84116102D01*
X155159360Y-84086487D01*
X155130608Y-84084667D01*
X154951598Y-84013284D01*
X154740274Y-83825103D01*
X154530777Y-83559075D01*
X154357246Y-83254153D01*
X154314348Y-83153334D01*
X154270959Y-83004736D01*
X154472375Y-83004736D01*
X154475202Y-83103823D01*
X154544686Y-83284801D01*
X154561926Y-83319301D01*
X154719364Y-83573336D01*
X154888528Y-83769999D01*
X155042647Y-83888701D01*
X155154950Y-83908853D01*
X155198665Y-83809866D01*
X155198666Y-83809002D01*
X155128833Y-83704201D01*
X154968368Y-83602405D01*
X155399926Y-83602405D01*
X155400717Y-83951668D01*
X155412556Y-84315412D01*
X155433978Y-84646562D01*
X155463519Y-84898042D01*
X155495946Y-85017532D01*
X155515000Y-85124273D01*
X155532607Y-85352497D01*
X155545155Y-85654369D01*
X155545761Y-85677419D01*
X155559737Y-85967073D01*
X155582472Y-86171196D01*
X155609346Y-86250285D01*
X155612668Y-86249474D01*
X155657758Y-86293834D01*
X155676481Y-86399958D01*
X155716350Y-86558724D01*
X155811810Y-86821447D01*
X155944744Y-87139635D01*
X155992328Y-87245443D01*
X156296027Y-87908552D01*
X156572846Y-87715462D01*
X156760972Y-87565264D01*
X157019135Y-87334687D01*
X157300593Y-87065978D01*
X157388265Y-86978513D01*
X157654275Y-86697822D01*
X157801095Y-86510283D01*
X157839482Y-86400474D01*
X157815641Y-86365913D01*
X157672630Y-86330890D01*
X157627409Y-86344767D01*
X157516534Y-86335589D01*
X157496367Y-86313949D01*
X157391915Y-86225379D01*
X157166657Y-86072764D01*
X156848060Y-85873842D01*
X156463592Y-85646349D01*
X156453521Y-85640533D01*
X156334647Y-85547860D01*
X156315432Y-85497766D01*
X156341666Y-85524000D01*
X156384000Y-85481667D01*
X156341666Y-85439334D01*
X156305428Y-85475571D01*
X156277410Y-85413707D01*
X156151539Y-85256620D01*
X156063425Y-85161666D01*
X155884534Y-84938485D01*
X155764545Y-84717634D01*
X155744269Y-84648964D01*
X155727075Y-84467495D01*
X155767795Y-84443396D01*
X155863259Y-84576102D01*
X155919764Y-84680102D01*
X156028901Y-84838284D01*
X156123164Y-84890883D01*
X156133605Y-84886772D01*
X156204056Y-84906847D01*
X156214666Y-84962174D01*
X156287701Y-85158653D01*
X156488882Y-85397237D01*
X156791328Y-85651919D01*
X157168156Y-85896690D01*
X157198073Y-85913590D01*
X157680349Y-86137077D01*
X158081471Y-86217724D01*
X158412934Y-86154430D01*
X158686234Y-85946094D01*
X158822909Y-85757904D01*
X158969456Y-85446145D01*
X159099508Y-85058334D01*
X159262666Y-85058334D01*
X159305000Y-85100667D01*
X159347333Y-85058334D01*
X159305000Y-85016000D01*
X159262666Y-85058334D01*
X159099508Y-85058334D01*
X159113903Y-85015410D01*
X159146669Y-84889000D01*
X159432000Y-84889000D01*
X159474333Y-84931334D01*
X159516666Y-84889000D01*
X159474333Y-84846667D01*
X159432000Y-84889000D01*
X159146669Y-84889000D01*
X159243425Y-84515719D01*
X159345196Y-83997091D01*
X159406392Y-83509543D01*
X159409333Y-83470834D01*
X159456196Y-82814667D01*
X159153812Y-82814667D01*
X158872758Y-82763210D01*
X158668449Y-82628835D01*
X158585497Y-82441535D01*
X158585333Y-82432481D01*
X158519097Y-82358183D01*
X158361403Y-82356290D01*
X158173769Y-82426601D01*
X158161681Y-82433864D01*
X158083892Y-82426848D01*
X158077333Y-82396330D01*
X158015872Y-82310112D01*
X157992666Y-82306667D01*
X157924616Y-82377816D01*
X157908000Y-82481566D01*
X157841572Y-82766304D01*
X157674317Y-83037464D01*
X157576670Y-83131743D01*
X157385410Y-83193600D01*
X157107462Y-83185858D01*
X156806515Y-83116765D01*
X156553333Y-82999231D01*
X156374265Y-82899031D01*
X156257000Y-82859201D01*
X156179628Y-82788193D01*
X156176591Y-82772334D01*
X156214666Y-82772334D01*
X156257000Y-82814667D01*
X156299333Y-82772334D01*
X156257000Y-82730000D01*
X156214666Y-82772334D01*
X156176591Y-82772334D01*
X156168484Y-82730000D01*
X156111755Y-82629545D01*
X156062651Y-82624167D01*
X155982273Y-82582573D01*
X155981833Y-82541510D01*
X155927992Y-82449848D01*
X155815492Y-82409014D01*
X155668001Y-82426001D01*
X155588909Y-82563229D01*
X155575055Y-82618670D01*
X155510637Y-82876839D01*
X155437355Y-83135624D01*
X155411651Y-83314699D01*
X155399926Y-83602405D01*
X154968368Y-83602405D01*
X154959949Y-83597064D01*
X154951535Y-83593279D01*
X154718418Y-83408369D01*
X154694001Y-83365000D01*
X154860000Y-83365000D01*
X154902333Y-83407334D01*
X154944666Y-83365000D01*
X154902333Y-83322667D01*
X154860000Y-83365000D01*
X154694001Y-83365000D01*
X154622499Y-83238000D01*
X155029333Y-83238000D01*
X155060311Y-83307690D01*
X155085777Y-83294445D01*
X155095910Y-83193965D01*
X155085777Y-83181556D01*
X155035443Y-83193178D01*
X155029333Y-83238000D01*
X154622499Y-83238000D01*
X154612486Y-83220215D01*
X154538299Y-83055872D01*
X154477871Y-83001155D01*
X154472375Y-83004736D01*
X154270959Y-83004736D01*
X154246363Y-82920500D01*
X154776629Y-82920500D01*
X154790510Y-83110064D01*
X154832362Y-83139877D01*
X154885441Y-83039822D01*
X154883010Y-82873720D01*
X154853463Y-82806989D01*
X154798735Y-82763110D01*
X154777556Y-82872961D01*
X154776629Y-82920500D01*
X154246363Y-82920500D01*
X154211009Y-82799423D01*
X154189497Y-82687667D01*
X155114000Y-82687667D01*
X155156333Y-82730000D01*
X155198666Y-82687667D01*
X155156333Y-82645334D01*
X155114000Y-82687667D01*
X154189497Y-82687667D01*
X154173200Y-82603000D01*
X154352000Y-82603000D01*
X154394333Y-82645334D01*
X154436666Y-82603000D01*
X154394333Y-82560667D01*
X154521333Y-82560667D01*
X154552311Y-82630357D01*
X154577777Y-82617111D01*
X154587910Y-82516632D01*
X154577777Y-82504222D01*
X154527443Y-82515845D01*
X154521333Y-82560667D01*
X154394333Y-82560667D01*
X154352000Y-82603000D01*
X154173200Y-82603000D01*
X154140606Y-82433667D01*
X154775333Y-82433667D01*
X154817666Y-82476000D01*
X154860000Y-82433667D01*
X154817666Y-82391334D01*
X154775333Y-82433667D01*
X154140606Y-82433667D01*
X154124309Y-82349000D01*
X154606000Y-82349000D01*
X154648333Y-82391334D01*
X154690666Y-82349000D01*
X155029333Y-82349000D01*
X155071666Y-82391334D01*
X155114000Y-82349000D01*
X155071666Y-82306667D01*
X155029333Y-82349000D01*
X154690666Y-82349000D01*
X154648333Y-82306667D01*
X154606000Y-82349000D01*
X154124309Y-82349000D01*
X154115008Y-82300680D01*
X154086848Y-82095000D01*
X154267333Y-82095000D01*
X154309666Y-82137334D01*
X154352000Y-82095000D01*
X154309666Y-82052667D01*
X154267333Y-82095000D01*
X154086848Y-82095000D01*
X154075256Y-82010334D01*
X154436666Y-82010334D01*
X154479000Y-82052667D01*
X154521333Y-82010334D01*
X154479000Y-81968000D01*
X154436666Y-82010334D01*
X154075256Y-82010334D01*
X154030246Y-81681574D01*
X153960622Y-80966569D01*
X153955462Y-80901322D01*
X153945973Y-80678872D01*
X153961264Y-80471653D01*
X154011229Y-80252198D01*
X154063676Y-80108411D01*
X155406072Y-80108411D01*
X155438056Y-80397090D01*
X155501688Y-80571984D01*
X155596652Y-80924996D01*
X155640452Y-81386442D01*
X155642442Y-81523500D01*
X155651015Y-81864793D01*
X155681120Y-82060898D01*
X155736943Y-82135070D01*
X155752935Y-82137334D01*
X155865346Y-82066884D01*
X155919049Y-81965745D01*
X155955309Y-81912678D01*
X156317671Y-81912678D01*
X156321046Y-81968250D01*
X156460417Y-81991624D01*
X156608289Y-81982596D01*
X156795981Y-81950933D01*
X156833104Y-81910230D01*
X156775914Y-81867434D01*
X156579967Y-81825422D01*
X156466958Y-81841542D01*
X156317671Y-81912678D01*
X155955309Y-81912678D01*
X156063468Y-81754388D01*
X156311024Y-81594209D01*
X156595840Y-81525954D01*
X156630176Y-81525897D01*
X156834074Y-81574710D01*
X157102315Y-81692738D01*
X157277149Y-81792651D01*
X157520489Y-81924813D01*
X157754050Y-82016186D01*
X157941001Y-82058005D01*
X158044507Y-82041504D01*
X158038615Y-81973850D01*
X158049233Y-81865111D01*
X158075952Y-81841854D01*
X158154961Y-81847267D01*
X158162000Y-81878337D01*
X158230496Y-81957855D01*
X158289000Y-81968000D01*
X158401671Y-81922283D01*
X158416000Y-81883334D01*
X158481087Y-81801920D01*
X158505663Y-81798667D01*
X158551228Y-81853380D01*
X158531744Y-81904500D01*
X158527377Y-81947967D01*
X158624371Y-81885033D01*
X158805152Y-81729831D01*
X158917366Y-81623821D01*
X159283425Y-81623821D01*
X159295006Y-81629334D01*
X159372271Y-81569730D01*
X159389666Y-81544667D01*
X159411241Y-81465513D01*
X159399660Y-81460000D01*
X159322394Y-81519604D01*
X159305000Y-81544667D01*
X159283425Y-81623821D01*
X158917366Y-81623821D01*
X159052145Y-81496494D01*
X159110836Y-81438834D01*
X159331657Y-81173016D01*
X159427611Y-80945655D01*
X159391245Y-80779182D01*
X159343624Y-80738041D01*
X159211728Y-80737823D01*
X159139839Y-80779203D01*
X159006746Y-80841486D01*
X158747952Y-80927234D01*
X158403713Y-81026275D01*
X158014286Y-81128437D01*
X157619929Y-81223549D01*
X157260899Y-81301438D01*
X156977453Y-81351931D01*
X156819467Y-81365512D01*
X156683902Y-81352970D01*
X156709260Y-81329304D01*
X156765000Y-81314370D01*
X157240919Y-81194638D01*
X157725750Y-81066405D01*
X158189502Y-80938295D01*
X158602182Y-80818934D01*
X158933801Y-80716948D01*
X159154366Y-80640962D01*
X159229760Y-80605510D01*
X159277776Y-80464782D01*
X159232564Y-80236189D01*
X159111398Y-79960176D01*
X159042226Y-79851334D01*
X159178000Y-79851334D01*
X159208978Y-79921024D01*
X159234444Y-79907778D01*
X159244577Y-79807298D01*
X159234444Y-79794889D01*
X159184110Y-79806511D01*
X159178000Y-79851334D01*
X159042226Y-79851334D01*
X158931551Y-79677189D01*
X158738012Y-79454071D01*
X158419971Y-79143512D01*
X158262703Y-79324843D01*
X157997872Y-79543285D01*
X157680741Y-79628585D01*
X157279615Y-79587850D01*
X157188451Y-79565709D01*
X156666384Y-79493855D01*
X156161724Y-79567630D01*
X155769249Y-79719736D01*
X155513643Y-79891628D01*
X155406072Y-80108411D01*
X154063676Y-80108411D01*
X154105758Y-79993040D01*
X154254744Y-79666713D01*
X154468079Y-79245751D01*
X154528436Y-79131667D01*
X155029333Y-79131667D01*
X155071666Y-79174000D01*
X155114000Y-79131667D01*
X158627666Y-79131667D01*
X158876340Y-79406834D01*
X159056916Y-79599192D01*
X159150747Y-79676858D01*
X159177995Y-79656453D01*
X159178000Y-79655507D01*
X159121317Y-79588224D01*
X158978487Y-79449735D01*
X158902833Y-79380341D01*
X158627666Y-79131667D01*
X155114000Y-79131667D01*
X155071666Y-79089334D01*
X155029333Y-79131667D01*
X154528436Y-79131667D01*
X154573229Y-79047000D01*
X159347333Y-79047000D01*
X159389666Y-79089334D01*
X159432000Y-79047000D01*
X159389666Y-79004667D01*
X159347333Y-79047000D01*
X154573229Y-79047000D01*
X154618022Y-78962334D01*
X158246666Y-78962334D01*
X158289000Y-79004667D01*
X158331333Y-78962334D01*
X158289000Y-78920000D01*
X158246666Y-78962334D01*
X154618022Y-78962334D01*
X154730006Y-78750667D01*
X155057330Y-78285000D01*
X158500666Y-78285000D01*
X158543000Y-78327334D01*
X158585333Y-78285000D01*
X158543000Y-78242667D01*
X158500666Y-78285000D01*
X155057330Y-78285000D01*
X155092947Y-78234329D01*
X155551005Y-77843910D01*
X155820949Y-77714425D01*
X156590054Y-77714425D01*
X156673277Y-77727983D01*
X156783091Y-77712416D01*
X156784402Y-77683514D01*
X156671085Y-77663303D01*
X156622125Y-77676830D01*
X156590054Y-77714425D01*
X155820949Y-77714425D01*
X156081035Y-77589669D01*
X156659892Y-77481861D01*
X157264431Y-77530745D01*
G37*
D12*
%TO.C,C401*%
X140465000Y-73976248D02*
X140465000Y-74498752D01*
X141935000Y-73976248D02*
X141935000Y-74498752D01*
%TO.C,U401*%
X143870000Y-65960000D02*
X169270000Y-65960000D01*
X143870000Y-104880000D02*
X143870000Y-65960000D01*
X169270000Y-65960000D02*
X169270000Y-104880000D01*
X169270000Y-104880000D02*
X143870000Y-104880000D01*
%TD*%
%LPC*%
D13*
%TO.C,C401*%
X141200000Y-73200000D03*
X141200000Y-75275000D03*
%TD*%
D14*
%TO.C,U401*%
X145140000Y-67640000D03*
D15*
X145140000Y-70180000D03*
X145140000Y-72720000D03*
X145140000Y-75260000D03*
X145140000Y-77800000D03*
X145140000Y-80340000D03*
X145140000Y-82880000D03*
X145140000Y-85420000D03*
X145140000Y-87960000D03*
X145140000Y-90500000D03*
X145140000Y-93040000D03*
X145140000Y-95580000D03*
X145140000Y-98120000D03*
X145140000Y-100660000D03*
X145140000Y-103200000D03*
X168000000Y-103200000D03*
X168000000Y-100660000D03*
X168000000Y-98120000D03*
X168000000Y-95580000D03*
X168000000Y-93040000D03*
X168000000Y-90500000D03*
X168000000Y-87960000D03*
X168000000Y-85420000D03*
X168000000Y-82880000D03*
X168000000Y-80340000D03*
X168000000Y-77800000D03*
X168000000Y-75260000D03*
X168000000Y-72720000D03*
X168000000Y-70180000D03*
X168000000Y-67640000D03*
%TD*%
%LPD*%
M02*
