%TF.GenerationSoftware,KiCad,Pcbnew,8.0.8+1*%
%TF.CreationDate,Date%
%TF.ProjectId,KiBot,4b69426f-742e-46b6-9963-61645f706362,+ (Unreleased)*%
%TF.SameCoordinates,Original*%
%TF.FileFunction,Copper,L1,Top*%
%TF.FilePolarity,Positive*%
%FSLAX46Y46*%
G04 Gerber Fmt 4.6, Leading zero omitted, Abs format (unit mm)*
G04 Created by KiCad*
%MOMM*%
%LPD*%
G01*
G04 APERTURE LIST*
G04 Aperture macros list*
%AMRoundRect*
0 Rectangle with rounded corners*
0 $1 Rounding radius*
0 $2 $3 $4 $5 $6 $7 $8 $9 X,Y pos of 4 corners*
0 Add a 4 corners polygon primitive as box body*
4,1,4,$2,$3,$4,$5,$6,$7,$8,$9,$2,$3,0*
0 Add four circle primitives for the rounded corners*
1,1,$1+$1,$2,$3*
1,1,$1+$1,$4,$5*
1,1,$1+$1,$6,$7*
1,1,$1+$1,$8,$9*
0 Add four rect primitives between the rounded corners*
20,1,$1+$1,$2,$3,$4,$5,0*
20,1,$1+$1,$4,$5,$6,$7,0*
20,1,$1+$1,$6,$7,$8,$9,0*
20,1,$1+$1,$8,$9,$2,$3,0*%
G04 Aperture macros list end*
%TA.AperFunction,SMDPad,CuDef*%
%ADD10RoundRect,0.250000X-0.475000X0.337500X-0.475000X-0.337500X0.475000X-0.337500X0.475000X0.337500X0*%
%TD*%
%TA.AperFunction,ComponentPad*%
%ADD11R,1.500000X1.500000*%
%TD*%
%TA.AperFunction,ComponentPad*%
%ADD12C,1.500000*%
%TD*%
%TA.AperFunction,Conductor*%
%ADD13C,0.200000*%
%TD*%
G04 APERTURE END LIST*
D10*
%TO.P,C401,1*%
%TO.N,Net-(C401-Pad1)*%
X152600000Y-74162500D03*
%TO.P,C401,2*%
%TO.N,Net-(U401-IO4)*%
X152600000Y-76237500D03*
%TD*%
D11*
%TO.P,U401,1,GND*%
%TO.N,unconnected-(U401-GND-Pad1)_2*%
X145140000Y-67640000D03*
D12*
%TO.P,U401,2,3V3*%
%TO.N,Net-(C401-Pad1)*%
X145140000Y-70180000D03*
%TO.P,U401,3,3V3*%
X145140000Y-72720000D03*
%TO.P,U401,4,IO2*%
%TO.N,unconnected-(U401-IO2-Pad4)*%
X145140000Y-75260000D03*
%TO.P,U401,5,IO3*%
%TO.N,unconnected-(U401-IO3-Pad5)*%
X145140000Y-77800000D03*
%TO.P,U401,6,GND*%
%TO.N,unconnected-(U401-GND-Pad1)_7*%
X145140000Y-80340000D03*
%TO.P,U401,7,RST*%
%TO.N,unconnected-(U401-RST-Pad7)*%
X145140000Y-82880000D03*
%TO.P,U401,8,GND*%
%TO.N,unconnected-(U401-GND-Pad1)_6*%
X145140000Y-85420000D03*
%TO.P,U401,9,IO0*%
%TO.N,unconnected-(U401-IO0-Pad9)*%
X145140000Y-87960000D03*
%TO.P,U401,10,IO1*%
%TO.N,unconnected-(U401-IO1-Pad10)*%
X145140000Y-90500000D03*
%TO.P,U401,11,IO10*%
%TO.N,unconnected-(U401-IO10-Pad11)*%
X145140000Y-93040000D03*
%TO.P,U401,12,GND*%
%TO.N,unconnected-(U401-GND-Pad1)_4*%
X145140000Y-95580000D03*
%TO.P,U401,13,5V*%
%TO.N,unconnected-(U401-5V-Pad13)*%
X145140000Y-98120000D03*
%TO.P,U401,14,5V*%
%TO.N,unconnected-(U401-5V-Pad13)_1*%
X145140000Y-100660000D03*
%TO.P,U401,15,GND*%
%TO.N,unconnected-(U401-GND-Pad1)_1*%
X145140000Y-103200000D03*
%TO.P,U401,16,GND*%
%TO.N,unconnected-(U401-GND-Pad1)_3*%
X168000000Y-103200000D03*
%TO.P,U401,17,IO19*%
%TO.N,unconnected-(U401-IO19-Pad17)*%
X168000000Y-100660000D03*
%TO.P,U401,18,IO18*%
%TO.N,unconnected-(U401-IO18-Pad18)*%
X168000000Y-98120000D03*
%TO.P,U401,19,GND*%
%TO.N,unconnected-(U401-GND-Pad1)_8*%
X168000000Y-95580000D03*
%TO.P,U401,20,IO4*%
%TO.N,Net-(U401-IO4)*%
X168000000Y-93040000D03*
%TO.P,U401,21,IO5*%
%TO.N,unconnected-(U401-IO5-Pad21)*%
X168000000Y-90500000D03*
%TO.P,U401,22,IO6*%
%TO.N,unconnected-(U401-IO6-Pad22)*%
X168000000Y-87960000D03*
%TO.P,U401,23,IO7*%
%TO.N,unconnected-(U401-IO7-Pad23)*%
X168000000Y-85420000D03*
%TO.P,U401,24,GND*%
%TO.N,unconnected-(U401-GND-Pad1)_9*%
X168000000Y-82880000D03*
%TO.P,U401,25,IO8*%
%TO.N,unconnected-(U401-IO8-Pad25)*%
X168000000Y-80340000D03*
%TO.P,U401,26,IO9*%
%TO.N,unconnected-(U401-IO9-Pad26)*%
X168000000Y-77800000D03*
%TO.P,U401,27,GND*%
%TO.N,unconnected-(U401-GND-Pad1)_5*%
X168000000Y-75260000D03*
%TO.P,U401,28,RX*%
%TO.N,unconnected-(U401-RX-Pad28)*%
X168000000Y-72720000D03*
%TO.P,U401,29,TX*%
%TO.N,unconnected-(U401-TX-Pad29)*%
X168000000Y-70180000D03*
%TO.P,U401,30,GND*%
%TO.N,unconnected-(U401-GND-Pad1)*%
X168000000Y-67640000D03*
%TD*%
D13*
%TO.N,Net-(C401-Pad1)*%
X151157500Y-72720000D02*
X152600000Y-74162500D01*
X144697500Y-73162500D02*
X145140000Y-72720000D01*
X145140000Y-72720000D02*
X151157500Y-72720000D01*
X145140000Y-70180000D02*
X145140000Y-72720000D01*
%TO.N,Net-(U401-IO4)*%
X152600000Y-78400000D02*
X152600000Y-76237500D01*
X154600000Y-93040000D02*
X150400000Y-88840000D01*
X150400000Y-80800000D02*
X150400000Y-80600000D01*
X168000000Y-93040000D02*
X154600000Y-93040000D01*
X150400000Y-88840000D02*
X150400000Y-80800000D01*
X150400000Y-80800000D02*
X150400000Y-80550000D01*
X150400000Y-80600000D02*
X152600000Y-78400000D01*
%TD*%
M02*
