%TF.GenerationSoftware,KiCad,Pcbnew,8.0.8+1*%
%TF.CreationDate,Date%
%TF.ProjectId,KiBot,4b69426f-742e-46b6-9963-61645f706362,1.0.1*%
%TF.SameCoordinates,Original*%
%TF.FileFunction,Legend,Bot*%
%TF.FilePolarity,Positive*%
%FSLAX46Y46*%
G04 Gerber Fmt 4.6, Leading zero omitted, Abs format (unit mm)*
G04 Created by KiCad*
%MOMM*%
%LPD*%
G01*
G04 APERTURE LIST*
G04 Aperture macros list*
%AMRoundRect*
0 Rectangle with rounded corners*
0 $1 Rounding radius*
0 $2 $3 $4 $5 $6 $7 $8 $9 X,Y pos of 4 corners*
0 Add a 4 corners polygon primitive as box body*
4,1,4,$2,$3,$4,$5,$6,$7,$8,$9,$2,$3,0*
0 Add four circle primitives for the rounded corners*
1,1,$1+$1,$2,$3*
1,1,$1+$1,$4,$5*
1,1,$1+$1,$6,$7*
1,1,$1+$1,$8,$9*
0 Add four rect primitives between the rounded corners*
20,1,$1+$1,$2,$3,$4,$5,0*
20,1,$1+$1,$4,$5,$6,$7,0*
20,1,$1+$1,$6,$7,$8,$9,0*
20,1,$1+$1,$8,$9,$2,$3,0*%
G04 Aperture macros list end*
%ADD10C,0.150000*%
%ADD11C,0.120000*%
%ADD12RoundRect,0.050000X-0.750000X-0.750000X0.750000X-0.750000X0.750000X0.750000X-0.750000X0.750000X0*%
%ADD13C,1.600000*%
%ADD14RoundRect,0.271739X0.353261X0.478261X-0.353261X0.478261X-0.353261X-0.478261X0.353261X-0.478261X0*%
%ADD15RoundRect,0.271277X-0.503723X0.366223X-0.503723X-0.366223X0.503723X-0.366223X0.503723X0.366223X0*%
%ADD16RoundRect,0.270833X0.379167X0.479167X-0.379167X0.479167X-0.379167X-0.479167X0.379167X-0.479167X0*%
G04 APERTURE END LIST*
D10*
X157520475Y-81804819D02*
X157520475Y-80804819D01*
X157520475Y-80804819D02*
X157282380Y-80804819D01*
X157282380Y-80804819D02*
X157139523Y-80852438D01*
X157139523Y-80852438D02*
X157044285Y-80947676D01*
X157044285Y-80947676D02*
X156996666Y-81042914D01*
X156996666Y-81042914D02*
X156949047Y-81233390D01*
X156949047Y-81233390D02*
X156949047Y-81376247D01*
X156949047Y-81376247D02*
X156996666Y-81566723D01*
X156996666Y-81566723D02*
X157044285Y-81661961D01*
X157044285Y-81661961D02*
X157139523Y-81757200D01*
X157139523Y-81757200D02*
X157282380Y-81804819D01*
X157282380Y-81804819D02*
X157520475Y-81804819D01*
X156044285Y-80804819D02*
X156520475Y-80804819D01*
X156520475Y-80804819D02*
X156568094Y-81281009D01*
X156568094Y-81281009D02*
X156520475Y-81233390D01*
X156520475Y-81233390D02*
X156425237Y-81185771D01*
X156425237Y-81185771D02*
X156187142Y-81185771D01*
X156187142Y-81185771D02*
X156091904Y-81233390D01*
X156091904Y-81233390D02*
X156044285Y-81281009D01*
X156044285Y-81281009D02*
X155996666Y-81376247D01*
X155996666Y-81376247D02*
X155996666Y-81614342D01*
X155996666Y-81614342D02*
X156044285Y-81709580D01*
X156044285Y-81709580D02*
X156091904Y-81757200D01*
X156091904Y-81757200D02*
X156187142Y-81804819D01*
X156187142Y-81804819D02*
X156425237Y-81804819D01*
X156425237Y-81804819D02*
X156520475Y-81757200D01*
X156520475Y-81757200D02*
X156568094Y-81709580D01*
X155377618Y-80804819D02*
X155282380Y-80804819D01*
X155282380Y-80804819D02*
X155187142Y-80852438D01*
X155187142Y-80852438D02*
X155139523Y-80900057D01*
X155139523Y-80900057D02*
X155091904Y-80995295D01*
X155091904Y-80995295D02*
X155044285Y-81185771D01*
X155044285Y-81185771D02*
X155044285Y-81423866D01*
X155044285Y-81423866D02*
X155091904Y-81614342D01*
X155091904Y-81614342D02*
X155139523Y-81709580D01*
X155139523Y-81709580D02*
X155187142Y-81757200D01*
X155187142Y-81757200D02*
X155282380Y-81804819D01*
X155282380Y-81804819D02*
X155377618Y-81804819D01*
X155377618Y-81804819D02*
X155472856Y-81757200D01*
X155472856Y-81757200D02*
X155520475Y-81709580D01*
X155520475Y-81709580D02*
X155568094Y-81614342D01*
X155568094Y-81614342D02*
X155615713Y-81423866D01*
X155615713Y-81423866D02*
X155615713Y-81185771D01*
X155615713Y-81185771D02*
X155568094Y-80995295D01*
X155568094Y-80995295D02*
X155520475Y-80900057D01*
X155520475Y-80900057D02*
X155472856Y-80852438D01*
X155472856Y-80852438D02*
X155377618Y-80804819D01*
X154091904Y-81804819D02*
X154663332Y-81804819D01*
X154377618Y-81804819D02*
X154377618Y-80804819D01*
X154377618Y-80804819D02*
X154472856Y-80947676D01*
X154472856Y-80947676D02*
X154568094Y-81042914D01*
X154568094Y-81042914D02*
X154663332Y-81090533D01*
X161414580Y-83055952D02*
X161462200Y-83008333D01*
X161462200Y-83008333D02*
X161509819Y-82865476D01*
X161509819Y-82865476D02*
X161509819Y-82770238D01*
X161509819Y-82770238D02*
X161462200Y-82627381D01*
X161462200Y-82627381D02*
X161366961Y-82532143D01*
X161366961Y-82532143D02*
X161271723Y-82484524D01*
X161271723Y-82484524D02*
X161081247Y-82436905D01*
X161081247Y-82436905D02*
X160938390Y-82436905D01*
X160938390Y-82436905D02*
X160747914Y-82484524D01*
X160747914Y-82484524D02*
X160652676Y-82532143D01*
X160652676Y-82532143D02*
X160557438Y-82627381D01*
X160557438Y-82627381D02*
X160509819Y-82770238D01*
X160509819Y-82770238D02*
X160509819Y-82865476D01*
X160509819Y-82865476D02*
X160557438Y-83008333D01*
X160557438Y-83008333D02*
X160605057Y-83055952D01*
X160509819Y-83960714D02*
X160509819Y-83484524D01*
X160509819Y-83484524D02*
X160986009Y-83436905D01*
X160986009Y-83436905D02*
X160938390Y-83484524D01*
X160938390Y-83484524D02*
X160890771Y-83579762D01*
X160890771Y-83579762D02*
X160890771Y-83817857D01*
X160890771Y-83817857D02*
X160938390Y-83913095D01*
X160938390Y-83913095D02*
X160986009Y-83960714D01*
X160986009Y-83960714D02*
X161081247Y-84008333D01*
X161081247Y-84008333D02*
X161319342Y-84008333D01*
X161319342Y-84008333D02*
X161414580Y-83960714D01*
X161414580Y-83960714D02*
X161462200Y-83913095D01*
X161462200Y-83913095D02*
X161509819Y-83817857D01*
X161509819Y-83817857D02*
X161509819Y-83579762D01*
X161509819Y-83579762D02*
X161462200Y-83484524D01*
X161462200Y-83484524D02*
X161414580Y-83436905D01*
X160509819Y-84627381D02*
X160509819Y-84722619D01*
X160509819Y-84722619D02*
X160557438Y-84817857D01*
X160557438Y-84817857D02*
X160605057Y-84865476D01*
X160605057Y-84865476D02*
X160700295Y-84913095D01*
X160700295Y-84913095D02*
X160890771Y-84960714D01*
X160890771Y-84960714D02*
X161128866Y-84960714D01*
X161128866Y-84960714D02*
X161319342Y-84913095D01*
X161319342Y-84913095D02*
X161414580Y-84865476D01*
X161414580Y-84865476D02*
X161462200Y-84817857D01*
X161462200Y-84817857D02*
X161509819Y-84722619D01*
X161509819Y-84722619D02*
X161509819Y-84627381D01*
X161509819Y-84627381D02*
X161462200Y-84532143D01*
X161462200Y-84532143D02*
X161414580Y-84484524D01*
X161414580Y-84484524D02*
X161319342Y-84436905D01*
X161319342Y-84436905D02*
X161128866Y-84389286D01*
X161128866Y-84389286D02*
X160890771Y-84389286D01*
X160890771Y-84389286D02*
X160700295Y-84436905D01*
X160700295Y-84436905D02*
X160605057Y-84484524D01*
X160605057Y-84484524D02*
X160557438Y-84532143D01*
X160557438Y-84532143D02*
X160509819Y-84627381D01*
X161509819Y-85913095D02*
X161509819Y-85341667D01*
X161509819Y-85627381D02*
X160509819Y-85627381D01*
X160509819Y-85627381D02*
X160652676Y-85532143D01*
X160652676Y-85532143D02*
X160747914Y-85436905D01*
X160747914Y-85436905D02*
X160795533Y-85341667D01*
X156994047Y-88254819D02*
X157327380Y-87778628D01*
X157565475Y-88254819D02*
X157565475Y-87254819D01*
X157565475Y-87254819D02*
X157184523Y-87254819D01*
X157184523Y-87254819D02*
X157089285Y-87302438D01*
X157089285Y-87302438D02*
X157041666Y-87350057D01*
X157041666Y-87350057D02*
X156994047Y-87445295D01*
X156994047Y-87445295D02*
X156994047Y-87588152D01*
X156994047Y-87588152D02*
X157041666Y-87683390D01*
X157041666Y-87683390D02*
X157089285Y-87731009D01*
X157089285Y-87731009D02*
X157184523Y-87778628D01*
X157184523Y-87778628D02*
X157565475Y-87778628D01*
X156089285Y-87254819D02*
X156565475Y-87254819D01*
X156565475Y-87254819D02*
X156613094Y-87731009D01*
X156613094Y-87731009D02*
X156565475Y-87683390D01*
X156565475Y-87683390D02*
X156470237Y-87635771D01*
X156470237Y-87635771D02*
X156232142Y-87635771D01*
X156232142Y-87635771D02*
X156136904Y-87683390D01*
X156136904Y-87683390D02*
X156089285Y-87731009D01*
X156089285Y-87731009D02*
X156041666Y-87826247D01*
X156041666Y-87826247D02*
X156041666Y-88064342D01*
X156041666Y-88064342D02*
X156089285Y-88159580D01*
X156089285Y-88159580D02*
X156136904Y-88207200D01*
X156136904Y-88207200D02*
X156232142Y-88254819D01*
X156232142Y-88254819D02*
X156470237Y-88254819D01*
X156470237Y-88254819D02*
X156565475Y-88207200D01*
X156565475Y-88207200D02*
X156613094Y-88159580D01*
X155422618Y-87254819D02*
X155327380Y-87254819D01*
X155327380Y-87254819D02*
X155232142Y-87302438D01*
X155232142Y-87302438D02*
X155184523Y-87350057D01*
X155184523Y-87350057D02*
X155136904Y-87445295D01*
X155136904Y-87445295D02*
X155089285Y-87635771D01*
X155089285Y-87635771D02*
X155089285Y-87873866D01*
X155089285Y-87873866D02*
X155136904Y-88064342D01*
X155136904Y-88064342D02*
X155184523Y-88159580D01*
X155184523Y-88159580D02*
X155232142Y-88207200D01*
X155232142Y-88207200D02*
X155327380Y-88254819D01*
X155327380Y-88254819D02*
X155422618Y-88254819D01*
X155422618Y-88254819D02*
X155517856Y-88207200D01*
X155517856Y-88207200D02*
X155565475Y-88159580D01*
X155565475Y-88159580D02*
X155613094Y-88064342D01*
X155613094Y-88064342D02*
X155660713Y-87873866D01*
X155660713Y-87873866D02*
X155660713Y-87635771D01*
X155660713Y-87635771D02*
X155613094Y-87445295D01*
X155613094Y-87445295D02*
X155565475Y-87350057D01*
X155565475Y-87350057D02*
X155517856Y-87302438D01*
X155517856Y-87302438D02*
X155422618Y-87254819D01*
X154136904Y-88254819D02*
X154708332Y-88254819D01*
X154422618Y-88254819D02*
X154422618Y-87254819D01*
X154422618Y-87254819D02*
X154517856Y-87397676D01*
X154517856Y-87397676D02*
X154613094Y-87492914D01*
X154613094Y-87492914D02*
X154708332Y-87540533D01*
D11*
%TO.C,D501*%
X154830000Y-83960000D02*
X157690000Y-83960000D01*
X157690000Y-82040000D02*
X154830000Y-82040000D01*
X157690000Y-83960000D02*
X157690000Y-82040000D01*
%TO.C,C501*%
X158547500Y-84436252D02*
X158547500Y-83913748D01*
X160017500Y-84436252D02*
X160017500Y-83913748D01*
%TO.C,R501*%
X155647936Y-85260000D02*
X156102064Y-85260000D01*
X155647936Y-86730000D02*
X156102064Y-86730000D01*
%TD*%
%LPC*%
D12*
%TO.C,U401*%
X145140000Y-67640000D03*
D13*
X145140000Y-70180000D03*
X145140000Y-72720000D03*
X145140000Y-75260000D03*
X145140000Y-77800000D03*
X145140000Y-80340000D03*
X145140000Y-82880000D03*
X145140000Y-85420000D03*
X145140000Y-87960000D03*
X145140000Y-90500000D03*
X145140000Y-93040000D03*
X145140000Y-95580000D03*
X145140000Y-98120000D03*
X145140000Y-100660000D03*
X145140000Y-103200000D03*
X168000000Y-103200000D03*
X168000000Y-100660000D03*
X168000000Y-98120000D03*
X168000000Y-95580000D03*
X168000000Y-93040000D03*
X168000000Y-90500000D03*
X168000000Y-87960000D03*
X168000000Y-85420000D03*
X168000000Y-82880000D03*
X168000000Y-80340000D03*
X168000000Y-77800000D03*
X168000000Y-75260000D03*
X168000000Y-72720000D03*
X168000000Y-70180000D03*
X168000000Y-67640000D03*
%TD*%
D14*
%TO.C,D501*%
X156855000Y-83000000D03*
X154805000Y-83000000D03*
%TD*%
D15*
%TO.C,C501*%
X159282500Y-83137500D03*
X159282500Y-85212500D03*
%TD*%
D16*
%TO.C,R501*%
X156875000Y-85995000D03*
X154875000Y-85995000D03*
%TD*%
%LPD*%
M02*
